<svg xmlns="http://www.w3.org/2000/svg" viewBox="0 0 318.2 318.2">
<style type="text/css">
	.canvas_red{fill:#E43D30;}
</style>
    <g class="canvas_red">
        <path d="M46.2,158.8c0-23.2-17.3-42.8-40.4-45.6c-7.7,29.9-7.7,61.3,0,91.2C28.9,201.6,46.2,182.1,46.2,158.8z"/>
        <path d="M72.9,144.4c-8,0-14.5,6.4-14.5,14.4s6.4,14.5,14.4,14.5s14.5-6.4,14.5-14.4c0,0,0,0,0-0.1C87.4,150.9,80.9,144.4,72.9,144.4z"/>
        <path d="M272.1,158.8c0,23.2,17.3,42.8,40.4,45.6c7.7-29.9,7.7-61.3,0-91.2C289.4,116.1,272.1,135.6,272.1,158.8z"/>
        <path d="M245.3,144.4c-8-0.1-14.5,6.3-14.6,14.3s6.3,14.5,14.3,14.6s14.5-6.3,14.6-14.3c0-0.1,0-0.1,0-0.2C259.6,150.9,253.2,144.5,245.3,144.4z"/>
        <path d="M158.8,272.1c-23.2,0-42.8,17.3-45.6,40.4c29.9,7.7,61.3,7.7,91.2,0C201.6,289.4,182,272.1,158.8,272.1z"/>
        <path d="M158.8,231c-8,0-14.5,6.4-14.5,14.4s6.4,14.5,14.4,14.5s14.5-6.4,14.5-14.4c0,0,0,0,0-0.1C173.2,237.5,166.8,231,158.8,231z"/>
        <path d="M158.8,46.2c23.2,0,42.8-17.3,45.6-40.4c-29.9-7.7-61.3-7.7-91.2,0C116,28.9,135.6,46.2,158.8,46.2z"/>
        <path d="M158.8,58.5c-8,0-14.4,6.5-14.4,14.4c0,8,6.5,14.4,14.4,14.4s14.4-6.5,14.4-14.4l0,0C173.2,65,166.8,58.5,158.8,58.5z"/>
        <path d="M238.8,238.8c-16.4,16.4-18,42.4-3.7,60.7c26.6-15.7,48.8-37.9,64.5-64.5C281.3,220.9,255.2,222.5,238.8,238.8z"/>
        <path d="M209.7,209.7c-5.6,5.6-5.6,14.8,0,20.4s14.8,5.6,20.4,0s5.6-14.8,0-20.4l0,0C224.5,204.1,215.3,204.1,209.7,209.7z"/>
        <path d="M79.1,79.1c16.4-16.4,18-42.4,3.8-60.7C56.3,34.1,34.1,56.3,18.4,82.9C36.6,97.1,62.7,95.5,79.1,79.1z"/>
        <path d="M87.8,87.8c-5.6,5.6-5.6,14.8,0,20.4c5.6,5.6,14.8,5.6,20.4,0s5.6-14.8,0-20.4l0,0C102.6,82.2,93.4,82.2,87.8,87.8z"/>
        <path d="M238.7,78.9c16.4,16.4,42.5,18,60.7,3.8c-15.7-26.6-37.9-48.8-64.5-64.5C220.7,36.5,222.3,62.5,238.7,78.9z"/>
        <path d="M230,108.1c5.6-5.6,5.7-14.8,0-20.4c-5.6-5.6-14.8-5.7-20.4,0c-5.6,5.6-5.7,14.8,0,20.4l0,0C215.2,113.7,224.4,113.7,230,108.1z"/>
        <path d="M79,238.7c-16.4-16.4-42.4-18-60.7-3.8c15.7,26.6,37.8,48.8,64.4,64.5C96.9,281.1,95.4,255.1,79,238.7z"/>
        <path d="M87.7,209.5c-5.6,5.6-5.6,14.8,0,20.4s14.8,5.6,20.4,0s5.6-14.8,0-20.4l0,0C102.5,203.9,93.4,203.9,87.7,209.5z"/>
    </g>
</svg>
