<svg xmlns="http://www.w3.org/2000/svg" viewBox="0 0 89.8 105.2">
<style type="text/css">
	.st0{fill:#0288D1;}
	.st1{fill:#8CBAF8;}
</style>
<g>
	<path class="st0" d="M43.4,104.8c1,0.5,2.1,0.5,3,0l40.4-20.5c1.9-0.7,3-2.7,3-4.9v-9.7c0-4.1-4.4-6.8-8.2-4.9L45,83.2L8.2,64.8C4.5,62.9,0,65.7,0,70.2v9.7c0,1.9,1.2,3.8,3,4.9L43.4,104.8z"/>
	<path class="st1" d="M55.5,22v3c0,0.9-0.7,1.5-1.5,1.5H35.5c-0.9,0-1.5-0.7-1.5-1.5v-3H20.1v39.6L45,71.4l24.8-9.9V22H55.5z"/>
	<circle class="st0" cx="45" cy="16" r="16"/>
</g>
</svg>
