<svg xmlns="http://www.w3.org/2000/svg" viewBox="0 0 414.7 108.9">
<style type="text/css">
	.shs{fill:#8CBAF8;}
</style>
    <g class="shs">
        <path d="M163,5.2v99.2c0,2.1,1.7,3.7,3.7,3.7h23.4c2.1,0,3.7-1.7,3.7-3.7V70.6c0-2,1.6-3.7,3.7-3.7l20.5-0.3c2.1,0,3.8,1.7,3.8,3.7v33.8c0,2.1,1.6,3.7,3.7,3.7l24.2,0.3c2.1,0,3.8-1.7,3.8-3.7V5.2c0-2.1-1.7-3.7-3.7-3.7h-24.5c-2.1,0-3.7,1.7-3.7,3.7V32c0,2.1-1.7,3.7-3.7,3.7H198c-2.1,0-3.7-1.7-3.7-3.7V5.2c0-2.1-1.7-3.7-3.7-3.7h-23.7C164.7,1.5,163,3.1,163,5.2z"/>
        <path d="M42.8,108.1C16,108.1,0,92.5,0,77.9c0-5,0.8-6.2,5.2-6.2c4.6,0,13.8,0.1,18.4,0.1c4.5,0,6.3,1.5,8.7,5.7c2.9,5.2,6.3,6.1,10.6,6.1c3.7,0,9.5-1.9,9.5-6.5c0-3.6-2.1-5.7-5.1-6.8c-6.4-2.3-18.5-6.4-24.8-9C6.1,54.6,2,45.8,2,28.9C2,14.3,13.8,0,42.8,0c24.1,0,39.7,12.2,39.7,27.6c0,3.6-0.5,5.5-4.9,5.7c-7.3,0.4-12.5,0.3-20,0.3c-3.5,0-5.7-1.2-6.4-3.8c-1.2-4.3-2.4-6.3-8.3-6.6c-5.8,0-9.7,1.9-9.7,5.4c0,10,26,14.8,33.5,18.1c12.2,5.2,19.1,9,19.1,26.6C85.8,99.1,66.8,108.1,42.8,108.1z"/>
        <path d="M134.1,70.2h-20.5c-3.3,0-6-2.7-6-6V43.7c0-3.3,2.7-6,6-6h20.5c3.3,0,6,2.7,6,6v20.5C140.1,67.5,137.4,70.2,134.1,70.2z"/>
        <path d="M302.9,71.1h-20.5c-3.3,0-6-2.7-6-6V44.6c0-3.3,2.7-6,6-6h20.5c3.3,0,6,2.7,6,6v20.5C308.9,68.3,306.2,71.1,302.9,71.1z"/>
        <path d="M371.6,108.9c-26.7,0-42.8-15.6-42.8-30.2c0-5,0.8-6.2,5.2-6.2c4.6,0,13.8,0.1,18.4,0.1c4.5,0,6.3,1.5,8.7,5.7c2.9,5.2,6.3,6.1,10.6,6.1c3.7,0,9.5-1.9,9.5-6.5c0-3.6-2.1-5.7-5.1-6.8c-6.4-2.3-18.5-6.4-24.8-9c-16.3-6.7-20.4-15.6-20.4-32.4c0-14.6,11.8-28.9,40.8-28.9c24.1,0,39.7,12.2,39.7,27.6c0,3.6-0.5,5.5-4.9,5.7c-7.3,0.4-12.5,0.3-20,0.3c-3.5,0-5.7-1.2-6.4-3.8c-1.2-4.3-2.4-6.3-8.3-6.6c-5.8,0-9.7,1.9-9.7,5.4c0,10,26,14.8,33.5,18.1c12.2,5.2,19.1,9,19.1,26.6C414.7,99.9,395.7,108.9,371.6,108.9z"/>
    </g>
</svg>